REM DIRINDEX 1\2,1\3,1\4,1\5\6,1\5\7,1\8
REM DIRNAME folder01,folder02,folder03,folder04,folder05,folder06,folder07,folder08
TITLE ""
FILE "082 【082】Unit5 (0925 troop_0936 symbolize).mp3" MP3
  TRACK 01 AUDIO
    TITLE "0:"
    INDEX 01 00:00:00
  TRACK 02 AUDIO
    TITLE "2:cjc115_3216"
    INDEX 01 00:00:07
  TRACK 03 AUDIO
    TITLE "0:"
    INDEX 01 00:01:11
  TRACK 04 AUDIO
    TITLE "3:cjc115_3217"
    INDEX 01 00:01:22
  TRACK 05 AUDIO
    TITLE "0:"
    INDEX 01 00:03:10
  TRACK 06 AUDIO
    TITLE "4:cjc115_3218"
    INDEX 01 00:03:21
  TRACK 07 AUDIO
    TITLE "0:"
    INDEX 01 00:06:39
  TRACK 08 AUDIO
    TITLE "2:cjc115_3219"
    INDEX 01 00:07:51
  TRACK 09 AUDIO
    TITLE "0:"
    INDEX 01 00:08:73
  TRACK 10 AUDIO
    TITLE "3:cjc115_3220"
    INDEX 01 00:09:08
  TRACK 11 AUDIO
    TITLE "0:"
    INDEX 01 00:11:33
  TRACK 12 AUDIO
    TITLE "4:cjc115_3221"
    INDEX 01 00:11:44
  TRACK 13 AUDIO
    TITLE "0:"
    INDEX 01 00:16:20
  TRACK 14 AUDIO
    TITLE "2:cjc115_3222"
    INDEX 01 00:17:29
  TRACK 15 AUDIO
    TITLE "0:"
    INDEX 01 00:18:42
  TRACK 16 AUDIO
    TITLE "3:cjc115_3223"
    INDEX 01 00:18:48
  TRACK 17 AUDIO
    TITLE "0:"
    INDEX 01 00:21:15
  TRACK 18 AUDIO
    TITLE "4:cjc115_3224"
    INDEX 01 00:21:23
  TRACK 19 AUDIO
    TITLE "0:"
    INDEX 01 00:24:65
  TRACK 20 AUDIO
    TITLE "2:cjc115_3225"
    INDEX 01 00:26:03
  TRACK 21 AUDIO
    TITLE "0:"
    INDEX 01 00:27:26
  TRACK 22 AUDIO
    TITLE "3:cjc115_3226"
    INDEX 01 00:27:28
  TRACK 23 AUDIO
    TITLE "0:"
    INDEX 01 00:30:20
  TRACK 24 AUDIO
    TITLE "4:cjc115_3227"
    INDEX 01 00:30:28
  TRACK 25 AUDIO
    TITLE "0:"
    INDEX 01 00:33:03
  TRACK 26 AUDIO
    TITLE "2:cjc115_3228"
    INDEX 01 00:34:06
  TRACK 27 AUDIO
    TITLE "0:"
    INDEX 01 00:35:33
  TRACK 28 AUDIO
    TITLE "3:cjc115_3229"
    INDEX 01 00:35:41
  TRACK 29 AUDIO
    TITLE "0:"
    INDEX 01 00:37:69
  TRACK 30 AUDIO
    TITLE "4:cjc115_3230"
    INDEX 01 00:38:04
  TRACK 31 AUDIO
    TITLE "0:"
    INDEX 01 00:41:22
  TRACK 32 AUDIO
    TITLE "2:cjc115_3231"
    INDEX 01 00:42:29
  TRACK 33 AUDIO
    TITLE "0:"
    INDEX 01 00:43:70
  TRACK 34 AUDIO
    TITLE "3:cjc115_3232"
    INDEX 01 00:44:05
  TRACK 35 AUDIO
    TITLE "0:"
    INDEX 01 00:46:27
  TRACK 36 AUDIO
    TITLE "4:cjc115_3233"
    INDEX 01 00:46:33
  TRACK 37 AUDIO
    TITLE "0:"
    INDEX 01 00:49:25
  TRACK 38 AUDIO
    TITLE "2:cjc115_3234"
    INDEX 01 00:50:35
  TRACK 39 AUDIO
    TITLE "0:"
    INDEX 01 00:51:60
  TRACK 40 AUDIO
    TITLE "3:cjc115_3235"
    INDEX 01 00:51:69
  TRACK 41 AUDIO
    TITLE "0:"
    INDEX 01 00:53:06
  TRACK 42 AUDIO
    TITLE "4:cjc115_3236"
    INDEX 01 00:53:13
  TRACK 43 AUDIO
    TITLE "0:"
    INDEX 01 00:56:31
  TRACK 44 AUDIO
    TITLE "2:cjc115_3237"
    INDEX 01 00:57:41
  TRACK 45 AUDIO
    TITLE "0:"
    INDEX 01 00:58:54
  TRACK 46 AUDIO
    TITLE "3:cjc115_3238"
    INDEX 01 00:58:62
  TRACK 47 AUDIO
    TITLE "0:"
    INDEX 01 01:00:21
  TRACK 48 AUDIO
    TITLE "4:cjc115_3239"
    INDEX 01 01:00:23
  TRACK 49 AUDIO
    TITLE "0:"
    INDEX 01 01:03:02
  TRACK 50 AUDIO
    TITLE "2:cjc115_3240"
    INDEX 01 01:04:09
  TRACK 51 AUDIO
    TITLE "0:"
    INDEX 01 01:05:24
  TRACK 52 AUDIO
    TITLE "3:cjc115_3241"
    INDEX 01 01:05:34
  TRACK 53 AUDIO
    TITLE "0:"
    INDEX 01 01:07:72
  TRACK 54 AUDIO
    TITLE "4:cjc115_3242"
    INDEX 01 01:08:05
  TRACK 55 AUDIO
    TITLE "0:"
    INDEX 01 01:11:66
  TRACK 56 AUDIO
    TITLE "2:cjc115_3243"
    INDEX 01 01:13:00
  TRACK 57 AUDIO
    TITLE "0:"
    INDEX 01 01:14:02
  TRACK 58 AUDIO
    TITLE "3:cjc115_3244"
    INDEX 01 01:14:12
  TRACK 59 AUDIO
    TITLE "0:"
    INDEX 01 01:15:27
  TRACK 60 AUDIO
    TITLE "4:cjc115_3245"
    INDEX 01 01:15:33
  TRACK 61 AUDIO
    TITLE "0:"
    INDEX 01 01:18:49
  TRACK 62 AUDIO
    TITLE "2:cjc115_3246"
    INDEX 01 01:19:60
  TRACK 63 AUDIO
    TITLE "0:"
    INDEX 01 01:21:00
  TRACK 64 AUDIO
    TITLE "3:cjc115_3247"
    INDEX 01 01:21:08
  TRACK 65 AUDIO
    TITLE "0:"
    INDEX 01 01:23:18
  TRACK 66 AUDIO
    TITLE "4:cjc115_3248"
    INDEX 01 01:23:24
  TRACK 67 AUDIO
    TITLE "0:"
    INDEX 01 01:25:51
  TRACK 68 AUDIO
    TITLE "2:cjc115_3249"
    INDEX 01 01:26:62
  TRACK 69 AUDIO
    TITLE "0:"
    INDEX 01 01:28:27
  TRACK 70 AUDIO
    TITLE "3:cjc115_3250"
    INDEX 01 01:28:37
  TRACK 71 AUDIO
    TITLE "0:"
    INDEX 01 01:30:01
  TRACK 72 AUDIO
    TITLE "4:cjc115_3251"
    INDEX 01 01:30:07
  TRACK 73 AUDIO
    TITLE "0:"
    INDEX 01 01:33:23
